<?xml version="1.0" standalone="no"?><!-- Generator: Gravit.io --><svg xmlns="http://www.w3.org/2000/svg" xmlns:xlink="http://www.w3.org/1999/xlink" style="isolation:isolate" viewBox="15 -1150 256.638 256" width="256.638" height="256"><g id="logo_small"><path d="M 68.76 -1150 L 217.24 -1150 C 246.911 -1150 271 -1125.911 271 -1096.24 L 271 -947.76 C 271 -918.089 246.911 -894 217.24 -894 L 68.76 -894 C 39.089 -894 15 -918.089 15 -947.76 L 15 -1096.24 C 15 -1125.911 39.089 -1150 68.76 -1150 Z" style="stroke:none;fill:#000000;stroke-miterlimit:10;"/><g transform="matrix(8.927,0,0,8.927,30,-1108)"><text transform="matrix(1,0,0,1,0.464,15.204)" style="font-family:&quot;Geomanist&quot;;font-weight:400;font-size:20px;font-style:normal;fill:#ffffff;stroke:#FFFFFF;stroke-width:0.409;">db</text></g><path d=" M 239.883 -1073.492 L 147.439 -983.602 L 262.356 -1073.492 L 239.883 -1073.492 Z " fill="rgb(0,0,0)" vector-effect="non-scaling-stroke" stroke-width="0.511" stroke="rgb(0,0,0)" stroke-linejoin="miter" stroke-linecap="square" stroke-miterlimit="3"/><path d=" M 209.81 -937.963 C 209.81 -946.262 216.547 -953 224.846 -953 C 233.145 -953 239.883 -946.262 239.883 -937.963 C 239.883 -929.664 233.145 -922.926 224.846 -922.926 C 216.547 -922.926 209.81 -929.664 209.81 -937.963 Z " fill="rgb(255,209,57)"/></g></svg>