<?xml version="1.0" standalone="no"?><!-- Generator: Gravit.io --><svg xmlns="http://www.w3.org/2000/svg" xmlns:xlink="http://www.w3.org/1999/xlink" style="isolation:isolate" viewBox="-33 -1150 256 256" width="256" height="256"><g id="logo_small"><path d="M 20.76 -1150 L 169.24 -1150 C 198.911 -1150 223 -1125.911 223 -1096.24 L 223 -947.76 C 223 -918.089 198.911 -894 169.24 -894 L 20.76 -894 C -8.911 -894 -33 -918.089 -33 -947.76 L -33 -1096.24 C -33 -1125.911 -8.911 -1150 20.76 -1150 Z" style="stroke:none;fill:#000000;stroke-miterlimit:10;"/><clipPath id="_clipPath_CdWlYGRj7LHPXreGMB0KkJTeXvW4jnyv"><path d="M 20.76 -1150 L 169.24 -1150 C 198.911 -1150 223 -1125.911 223 -1096.24 L 223 -947.76 C 223 -918.089 198.911 -894 169.24 -894 L 20.76 -894 C -8.911 -894 -33 -918.089 -33 -947.76 L -33 -1096.24 C -33 -1125.911 -8.911 -1150 20.76 -1150 Z" style="stroke:black;fill:white;stroke-miterlimit:10;"/></clipPath><g clip-path="url(#_clipPath_CdWlYGRj7LHPXreGMB0KkJTeXvW4jnyv)"><g id="Group"><g transform="matrix(15.45,0,0,15.45,-7.782,-1162)"><text transform="matrix(1,0,0,1,0.733,15.353)" style="font-family:&quot;Geomanist&quot;;font-weight:400;font-size:20px;font-style:normal;letter-spacing:-1;fill:#ffffff;stroke:#FFFFFF;stroke-width:0.707;">b</text></g><path d=" M 156.673 -1088 L -33 -903.566 L 202.782 -1088 L 156.673 -1088 Z " fill="rgb(0,0,0)" vector-effect="non-scaling-stroke" stroke-width="0.884" stroke="rgb(0,0,0)" stroke-linejoin="miter" stroke-linecap="square" stroke-miterlimit="3"/></g><path d=" M 174 -918.018 C 174 -934.586 187.451 -948.037 204.018 -948.037 C 220.586 -948.037 234.037 -934.586 234.037 -918.018 C 234.037 -901.451 220.586 -888 204.018 -888 C 187.451 -888 174 -901.451 174 -918.018 Z " fill="rgb(255,209,57)"/></g></g></svg>